<svg xmlns="http://www.w3.org/2000/svg" viewBox="220.3 191.68 1611.2 640.82"><defs><linearGradient id="gradient_0" gradientUnits="userSpaceOnUse" x1="1466.443" y1="985.40112" x2="1488.2875" y2="976.36499"><stop offset="0" stop-color="#8D8A95"/><stop offset="1" stop-color="#A9A7AE"/></linearGradient></defs><path fill="#81091B" transform="scale(0.5 0.5)" d="M526.43 611.246C549.829 611.182 557.343 633.863 567.362 651.409C575.88 666.625 584.89 681.56 594.376 696.192C633.051 755.216 690.419 813.874 745.889 857.802C748.22 856.688 750.589 855.655 752.991 854.704C861.338 811.895 968.075 813.123 1075.38 859.607C1128.33 816.313 1173.19 772.897 1213.51 717.531C1226.64 699.362 1238.79 680.505 1249.9 661.039C1253.43 654.94 1269.17 625.85 1273.22 622.324C1330.97 572.047 1333.76 703.639 1334.1 730.212C1335.51 840.751 1292.65 934.368 1237.36 1026.74C1245.16 1036.59 1252.81 1046.56 1260.31 1056.64C1310.63 1124.14 1335.03 1192.45 1335.42 1277.09C1335.53 1301.94 1335.37 1317.27 1331.69 1342.39C1324.81 1392.06 1306.59 1439.48 1278.45 1480.98C1232.98 1548.01 1162.89 1594.39 1083.41 1610.05C1034.88 1619.45 997.635 1616.52 949.311 1616.97C853.349 1618.6 759.193 1620.59 676.688 1562.25C596.491 1505.55 531.932 1424.42 513.121 1326.42C491.809 1217.68 515.166 1104.93 577.925 1013.61C512.377 913.139 471.289 780.85 494.688 660.948C498.817 639.793 501.971 616.168 526.43 611.246Z"/><path fill="#CE0B18" transform="scale(0.5 0.5)" d="M766.602 876.019C833.633 846.864 920.901 842.272 991.909 858.011C1011.45 862.343 1036.46 870.924 1055.27 877.899C1052.37 883.962 1050.12 890.955 1047.87 897.354C1043.19 933.142 1057.84 962.973 1078.97 990.556C1081.4 993.702 1083.93 996.767 1086.56 999.745C1093.85 1004.56 1097.42 1011.13 1105.97 1016.02C1141.01 1036.02 1176.84 1054.5 1217.05 1039.7C1279.45 1116.83 1306.24 1198.22 1295.56 1298.1C1286.73 1378.13 1246.52 1451.4 1183.75 1501.82C1117.28 1555.25 1042.22 1571.23 958.722 1569.72C909.083 1568.83 859.752 1571.97 810.32 1567.05C727.48 1558.79 650.835 1520.56 598.11 1455.54C594.203 1450.78 585.896 1439.83 583.083 1434.51C565.054 1409.31 534.265 1334.78 534.282 1304.44C533.615 1300.22 533.045 1295.98 532.573 1291.73C523.053 1209.18 543.042 1100.32 595.099 1034.61C603.454 1039.89 606.814 1040.81 616.11 1042.79C654.424 1055.39 719.108 1019.7 742.924 990.69C762.524 966.813 777.71 934.707 775.494 903.265C773.22 891.5 771.61 886.88 766.602 876.019Z"/><path fill="#9E0E1D" transform="scale(0.5 0.5)" d="M1086.56 999.745C1093.85 1004.56 1097.42 1011.13 1105.97 1016.02C1141.01 1036.02 1176.84 1054.5 1217.05 1039.7C1279.45 1116.83 1306.24 1198.22 1295.56 1298.1C1286.73 1378.13 1246.52 1451.4 1183.75 1501.82C1117.28 1555.25 1042.22 1571.23 958.722 1569.72C909.083 1568.83 859.752 1571.97 810.32 1567.05C727.48 1558.79 650.835 1520.56 598.11 1455.54C594.203 1450.78 585.896 1439.83 583.083 1434.51C666.156 1503.89 745.821 1527.99 853.967 1523.92C940.153 1520.68 1009.68 1486.55 1067.25 1422.61C1069.66 1419.93 1071.21 1419.02 1071.03 1416.11L1068.07 1413.95C1079.97 1417.05 1105.74 1416.32 1118.5 1415.48C1103.78 1413.1 1095.11 1411.29 1080.94 1406.65C1086.53 1401.85 1102.64 1381.21 1103.83 1374.63L1102.27 1373.37C1104.53 1371.82 1113.46 1368.39 1116.89 1366.58C1163.13 1342.04 1183.89 1286.15 1170.95 1237.04C1194.34 1222.27 1211.29 1221.91 1238.74 1225.61C1216.09 1204.28 1190.96 1194.12 1160.76 1205.92C1164.84 1155.67 1134.44 1069.96 1107.65 1027.73C1101.2 1017.56 1092.12 1008.58 1087.27 1000.89L1086.56 999.745Z"/><path fill="#81091B" transform="scale(0.5 0.5)" d="M1160.76 1205.92C1190.96 1194.12 1216.09 1204.28 1238.74 1225.61C1211.29 1221.91 1194.34 1222.27 1170.95 1237.04C1183.89 1286.15 1163.13 1342.04 1116.89 1366.58C1113.46 1368.39 1104.53 1371.82 1102.27 1373.37L1103.83 1374.63C1102.64 1381.21 1086.53 1401.85 1080.94 1406.65C1095.11 1411.29 1103.78 1413.1 1118.5 1415.48C1105.74 1416.32 1079.97 1417.05 1068.07 1413.95C1053.62 1412.04 1035.96 1402.89 1023.65 1395.46C994.377 1377.76 968.996 1340.43 961.439 1307.21C957.756 1305.06 952.506 1302.1 949.282 1299.5C939.294 1291.54 932.973 1279.86 931.772 1267.15C929.758 1245.93 938.627 1229.25 951.915 1213.67C944.016 1233.78 938.17 1258.98 960.753 1272.24C976.423 1281.44 1008.56 1264.47 1024.65 1258.43C1049.52 1249.21 1074.32 1239.78 1099.03 1230.14C1119.22 1222.18 1140.52 1213.16 1160.76 1205.92Z"/><path fill="#CE0B18" transform="scale(0.5 0.5)" d="M1102.27 1373.37L1103.83 1374.63C1102.64 1381.21 1086.53 1401.85 1080.94 1406.65C1060.84 1397.47 1051.24 1393.83 1034.31 1379.48C1061 1382.09 1076.69 1383.2 1102.27 1373.37Z"/><path fill="#F1E4C3" transform="scale(0.5 0.5)" d="M1143.59 1245.21C1154.8 1266.58 1144.83 1300.31 1131.4 1318.81C1117.78 1337.68 1097.21 1350.35 1074.24 1354.02C1050.11 1357.71 1030.88 1352.03 1011.56 1337.85C1000.18 1328.15 994.28 1318.95 989.974 1304.73C999.709 1300.03 1011.11 1295.64 1021.24 1291.87C1062.14 1276.63 1102.51 1259.94 1143.59 1245.21Z"/><path fill="#EE4E4A" transform="scale(0.5 0.5)" d="M766.602 876.019C833.633 846.864 920.901 842.272 991.909 858.011C1011.45 862.343 1036.46 870.924 1055.27 877.899C1052.37 883.962 1050.12 890.955 1047.87 897.354C972.309 865.719 852.934 869.844 776.93 902.482C776.452 902.743 775.973 903.004 775.494 903.265C773.22 891.5 771.61 886.88 766.602 876.019Z"/><path fill="#EE4E4A" transform="scale(0.5 0.5)" d="M595.099 1034.61C603.454 1039.89 606.814 1040.81 616.11 1042.79C589.068 1071.49 562.451 1131.45 551.318 1169.68C544.932 1191.6 539.333 1224.93 537.231 1247.65C536.296 1257.57 535.771 1267.53 535.66 1277.5C535.598 1283.39 536.457 1300.54 535.299 1305L534.282 1304.44C533.615 1300.22 533.045 1295.98 532.573 1291.73C523.053 1209.18 543.042 1100.32 595.099 1034.61Z"/><path fill="#81091B" transform="scale(0.5 0.5)" d="M646.529 1201.4C666.173 1200.39 711.125 1222.14 731.383 1229.64C756.678 1239 782.495 1250.21 808.369 1259.29C830.026 1266.9 868.431 1289.94 882.199 1258.33C889.208 1241.07 883.884 1226.65 877.241 1210.55C903.96 1241.75 914.365 1281.69 871.644 1306.34C862.147 1341.43 840.915 1372.21 811.484 1393.56C776.746 1416.5 753.825 1418.74 713.255 1415.26C749.949 1408.87 767.729 1405.26 797.167 1379.67C731.386 1387.17 676.326 1358.69 659.767 1291.13C654.74 1270.63 656.885 1257.81 661.99 1237.49C635.098 1222.84 625.185 1221.82 593.788 1225.4C608.073 1210.06 625.982 1203.09 646.529 1201.4Z"/><path fill="#F1E4C3" transform="scale(0.5 0.5)" d="M687.526 1244.83C728.448 1259.73 768.528 1276.33 809.398 1291.29C820.308 1295.29 831.001 1299.65 841.729 1304.09C836.918 1319.17 832.31 1326.31 820.995 1337.07C801.372 1353.88 775.193 1358.7 750.347 1352.56C727.686 1347.01 708.167 1332.67 696.106 1312.7C682.883 1290.65 681.42 1269.18 687.526 1244.83Z"/><path fill="#EE4E4A" transform="scale(0.5 0.5)" d="M721.014 1154.08C729.386 1153.92 739.975 1155.88 748.179 1157.55C773.011 1162.58 841.014 1179.17 841.681 1210.29C825.39 1214.24 794.66 1193.91 779.163 1185.85C760.222 1176.01 739.286 1165 721.014 1154.08Z"/><path fill="#EE4E4A" transform="scale(0.5 0.5)" d="M1106.53 1154.45L1109.17 1154.31L1109.04 1155.3C1105.19 1158.02 1092.57 1165.07 1088.09 1166.92C1062.96 1177.31 1021.05 1208.77 995.813 1212.22C992.788 1210.66 992.411 1210.75 990.462 1207.88C990.057 1203.51 993.897 1198.61 996.59 1195.53C1017.88 1171.17 1075.2 1157.55 1106.53 1154.45Z"/><path fill="#F4E4C1" transform="scale(0.5 0.5)" d="M1112.11 991.538C1087.91 971.462 1067.19 939.076 1069.9 906.465C1070.99 893.367 1075.34 888.907 1084.92 881.143C1145.05 832.404 1200.9 779.058 1244.09 714.37C1261.39 688.456 1276.08 661.488 1292.29 635.155C1293.03 633.957 1294.46 634.666 1295.58 634.882C1298.75 638.338 1299.82 642.789 1301.43 647.32C1330.9 771.793 1291.05 893.27 1226.5 999.774C1219.93 1010.61 1214.56 1017.59 1201.4 1020.08C1173.1 1025.42 1133.31 1009.19 1112.11 991.538Z"/><path fill="#DFC190" transform="scale(0.5 0.5)" d="M1301.43 647.32C1330.9 771.793 1291.05 893.27 1226.5 999.774C1219.93 1010.61 1214.56 1017.59 1201.4 1020.08C1173.1 1025.42 1133.31 1009.19 1112.11 991.538C1115.79 990.703 1124.11 990.771 1128.35 990.647C1162.22 989.792 1181.84 961.549 1199.9 936.594C1249.14 868.533 1280.76 790.459 1293.57 707.486C1295.12 697.485 1297.64 651.643 1301.43 647.32Z"/><path fill="#F4E4C1" transform="scale(0.5 0.5)" d="M523.621 641.721C525.405 637.406 524.712 637.074 527.887 634.855C533.042 635.816 536.509 643.366 538.321 648.062C549.04 666.127 559.251 684.138 570.483 701.911C600.292 749.077 633.329 786.824 673.641 825.294C685.841 836.887 698.298 848.207 711.003 859.245C737.53 881.941 761.084 888.654 750.471 930.322C748.718 937.251 746.061 943.918 742.569 950.153C736.792 965.262 721.96 981.035 710.071 991.661C688.76 1009.48 644.671 1027.45 616.481 1018.55C613.58 1017.64 607.245 1014.56 605.298 1012.16C591.754 995.293 581.376 974.618 571.233 955.473C524.218 866.733 491.284 739.996 523.621 641.721Z"/><path fill="#DFC190" transform="scale(0.5 0.5)" d="M523.621 641.721C527.183 740.178 552.71 832.188 607.722 914.348C628.96 946.067 652.434 988.819 694.724 990.715C699.105 990.912 706.029 990.915 710.071 991.661C688.76 1009.48 644.671 1027.45 616.481 1018.55C613.58 1017.64 607.245 1014.56 605.298 1012.16C591.754 995.293 581.376 974.618 571.233 955.473C524.218 866.733 491.284 739.996 523.621 641.721Z"/><path fill="white" transform="scale(0.5 0.5)" d="M538.321 648.062C549.04 666.127 559.251 684.138 570.483 701.911C600.292 749.077 633.329 786.824 673.641 825.294C685.841 836.887 698.298 848.207 711.003 859.245C737.53 881.941 761.084 888.654 750.471 930.322C748.718 937.251 746.061 943.918 742.569 950.153C742.451 948.385 742.549 945.837 742.722 944.013C745.37 916.019 710.76 896.927 691.434 880.027C678.493 868.495 666.138 856.323 654.416 843.555C613.216 799.215 576.382 741.871 552.005 686.629C547.822 677.148 537.955 658.12 538.321 648.062Z"/><path fill="#898791" transform="scale(0.5 0.5)" d="M1483 442.34C1510.58 437.208 1540.99 435.962 1567.83 430.825C1601.75 454.786 1636.87 477.632 1670.86 501.567C1687.04 512.958 1707.06 525.171 1722.41 537.381C1728.55 562.841 1735.31 594.845 1739.71 620.629C1728.59 637.249 1713.79 654.494 1701.69 671.115C1710.05 688.891 1714.69 702.693 1707.3 721.996C1695.95 751.613 1669.49 763.079 1639.99 753.341C1625.68 773.025 1611.45 791.749 1597.48 811.755C1601.69 820.021 1604.82 826.416 1606.02 835.593C1610.15 867.274 1581.57 897.88 1549.38 894.421C1544.68 893.916 1540.55 892.968 1536 891.916C1520.83 910.939 1507.15 930.832 1492.35 950.065C1500.15 966.478 1503.1 979.063 1496.65 997.071C1491.96 1010.43 1482.13 1021.36 1469.35 1027.44C1456.86 1033.25 1444.96 1033.16 1431.98 1029.75C1405.7 1066.71 1378.72 1103.17 1351.06 1139.1C1343.13 1113.13 1330.93 1091.94 1317.22 1068.88C1307.84 1053.96 1297.8 1039.46 1287.12 1025.43C1301.98 1004.95 1314.16 981.166 1324.77 958.304L1335.53 933.423L1347.92 900.121C1349.13 896.177 1350.3 889.881 1351.22 885.681C1359.37 860.236 1365.39 821.269 1368.01 794.63C1371.84 760.872 1368.92 720.792 1365.05 687.193C1363.29 676.042 1361.78 667.241 1359.15 656.18C1371.99 632.993 1386.82 608.787 1399.06 585.906C1389.36 572.201 1383.76 559.51 1387.31 542.481C1394.1 509.892 1419.45 491.391 1452.05 495.184C1461.92 478.216 1472.63 458.782 1483 442.34Z"/><path fill="#5C5B64" transform="scale(0.5 0.5)" d="M1483 442.34C1510.58 437.208 1540.99 435.962 1567.83 430.825C1601.75 454.786 1636.87 477.632 1670.86 501.567C1687.04 512.958 1707.06 525.171 1722.41 537.381C1728.55 562.841 1735.31 594.845 1739.71 620.629C1728.59 637.249 1713.79 654.494 1701.69 671.115C1710.05 688.891 1714.69 702.693 1707.3 721.996C1695.95 751.613 1669.49 763.079 1639.99 753.341C1625.68 773.025 1611.45 791.749 1597.48 811.755C1601.69 820.021 1604.82 826.416 1606.02 835.593C1610.15 867.274 1581.57 897.88 1549.38 894.421C1544.68 893.916 1540.55 892.968 1536 891.916C1520.83 910.939 1507.15 930.832 1492.35 950.065C1500.15 966.478 1503.1 979.063 1496.65 997.071C1491.96 1010.43 1482.13 1021.36 1469.35 1027.44C1456.86 1033.25 1444.96 1033.16 1431.98 1029.75C1405.7 1066.71 1378.72 1103.17 1351.06 1139.1C1343.13 1113.13 1330.93 1091.94 1317.22 1068.88C1323.61 1063.75 1355.88 1016.53 1362.94 1006.42L1430.36 910.592L1541.65 753.923C1586.07 690.68 1632.1 623.624 1677.58 561.439C1695.64 571.846 1701.95 579.676 1711.09 598.034C1710.72 586.829 1704.99 562.809 1702.55 550.583C1688.09 539.665 1670.73 528.706 1655.7 518.541C1652.02 516.049 1642.31 509.112 1639.29 507.586C1613.47 489.982 1587.98 470.88 1561.76 454.252C1540.14 456.692 1516.99 459.533 1495.56 463.428C1451.11 536.123 1410.15 615.766 1365.05 687.193C1363.29 676.042 1361.78 667.241 1359.15 656.18C1371.99 632.993 1386.82 608.787 1399.06 585.906C1389.36 572.201 1383.76 559.51 1387.31 542.481C1394.1 509.892 1419.45 491.391 1452.05 495.184C1461.92 478.216 1472.63 458.782 1483 442.34Z"/><path fill="#898791" transform="scale(0.5 0.5)" d="M1406.01 523.934C1413.68 509.548 1432.66 504.829 1447.86 504.904C1444.17 511.91 1441.23 517.765 1436.7 524.247C1430.24 538.399 1418.75 554.099 1410.78 570.327C1398.3 554.071 1398.03 542.133 1406.01 523.934Z"/><path fill="#B7B5BB" transform="scale(0.5 0.5)" d="M1406.01 523.934C1413.68 509.548 1432.66 504.829 1447.86 504.904C1444.17 511.91 1441.23 517.765 1436.7 524.247C1424.48 530.589 1413.66 540.201 1406.01 523.934Z"/><path fill="#9997A0" transform="scale(0.5 0.5)" d="M1588.32 822.898C1595.04 833.404 1592.4 852.887 1589.08 864.422L1577.64 858.442L1565.6 851.88C1571.63 842.755 1581 831.024 1588.32 822.898Z"/><path fill="url(#gradient_0)" transform="scale(0.5 0.5)" d="M1483.6 960.756C1490.49 968.12 1490.74 997.031 1472.57 999.493C1465.68 993.388 1469.49 988.784 1469.72 979.933C1474.42 972.836 1478.37 967.493 1483.6 960.756Z"/><path fill="#9997A0" transform="scale(0.5 0.5)" d="M1692.33 682.663C1697.66 689.566 1697.11 708.631 1696.85 716.98C1692.45 716.048 1687.52 714.579 1683.13 713.389C1679.95 712.117 1676.78 710.549 1673.67 709.087C1677.32 700.587 1686.33 689.871 1692.33 682.663Z"/><path fill="#B7B5BB" transform="scale(0.5 0.5)" d="M1495.56 463.428C1516.99 459.533 1540.14 456.692 1561.76 454.252C1587.98 470.88 1613.47 489.982 1639.29 507.586C1633.87 508.664 1626.14 502.773 1620.59 502.703C1597.51 502.415 1584.91 491.375 1565.35 484.834C1556.5 494.811 1542.75 518.356 1534.91 530.762L1482.22 613.736L1406.14 734.111C1396.48 749.362 1376.05 779.456 1368.01 794.63C1371.84 760.872 1368.92 720.792 1365.05 687.193C1410.15 615.766 1451.11 536.123 1495.56 463.428Z"/><path fill="#5C5B64" transform="scale(0.5 0.5)" d="M1335.53 933.423C1351.12 944.752 1372.32 940.01 1382.57 924.109C1386.78 917.687 1388.18 909.816 1386.44 902.334C1384.97 896.146 1381.56 890.59 1376.71 886.479C1374.45 884.532 1369.21 881.618 1369.93 880.078C1374.55 879.437 1381.49 883.393 1385 886.329C1417.17 913.186 1399.67 961.886 1359.91 967.084C1346.95 968.778 1336.03 964.237 1324.77 958.304L1335.53 933.423Z"/><path fill="#B7B5BB" transform="scale(0.5 0.5)" d="M1351.22 885.681C1379.81 871.017 1366.8 920.067 1347.92 900.121C1349.13 896.177 1350.3 889.881 1351.22 885.681Z"/><path fill="#898791" transform="scale(0.5 0.5)" d="M1515.41 602.327C1532.1 578.259 1563.09 572.565 1581.41 597.717C1586.63 599.505 1590.6 606.078 1592.87 610.967C1604.58 636.153 1594.31 665.732 1568.76 676.477C1557.76 681.039 1545.39 681.025 1534.4 676.438C1513.85 667.963 1505.33 648.133 1505.51 627.147C1505.57 619.629 1507.74 605.971 1515.41 602.327Z"/><path fill="#5C5B64" transform="scale(0.5 0.5)" d="M1581.41 597.717C1586.63 599.505 1590.6 606.078 1592.87 610.967C1604.58 636.153 1594.31 665.732 1568.76 676.477C1557.76 681.039 1545.39 681.025 1534.4 676.438C1513.85 667.963 1505.33 648.133 1505.51 627.147C1505.57 619.629 1507.74 605.971 1515.41 602.327C1512.46 611.201 1511.55 615.722 1514.6 624.929C1530.64 666.374 1591.06 647.456 1584.37 607.086C1583.53 604.079 1582.37 600.72 1581.41 597.717Z"/><path fill="#B7B5BB" transform="scale(0.5 0.5)" d="M1515.41 602.327C1532.1 578.259 1563.09 572.565 1581.41 597.717C1582.37 600.72 1583.53 604.079 1584.37 607.086C1584.24 609.732 1584.55 614.166 1583.15 615.723C1574.21 603.5 1572.94 601.101 1556.84 598.004C1534.59 593.727 1522.95 607.595 1514.6 624.929C1511.55 615.722 1512.46 611.201 1515.41 602.327Z"/><path fill="#5C5B64" transform="scale(0.5 0.5)" d="M1470.79 735.643L1471.69 736.106C1483.86 742.45 1493.77 751.681 1497.76 765.17C1501.37 777.705 1499.85 791.163 1493.52 802.57C1487.28 813.358 1476.86 821.087 1464.72 823.928C1438.16 830.324 1416.2 813.719 1410.86 787.733C1409.23 779.784 1410.82 765.606 1415.6 758.829C1415.96 762.528 1416.26 766.233 1416.48 769.943L1418.72 775.025C1429.84 796.16 1456.54 803.63 1474.97 787.757C1481.5 782.027 1485.34 773.84 1485.58 765.161C1486.08 751.8 1479.13 744.529 1470.79 735.643Z"/><path fill="#B7B5BB" transform="scale(0.5 0.5)" d="M1416.48 769.943C1417.09 753.612 1419.56 742.217 1436.88 734.871C1450.67 729.022 1461.66 732.398 1474.73 737.944C1470.31 740.587 1467.77 742.038 1463.75 745.402C1460.33 760.174 1443.5 761.84 1437.23 746.465C1427.09 754.259 1422.56 759.825 1419.47 772.98C1419.17 774.293 1419.36 773.69 1418.72 775.025L1416.48 769.943Z"/><path fill="#9997A0" transform="scale(0.5 0.5)" d="M1437.23 746.465C1448.86 746.897 1453.44 750.005 1463.75 745.402C1460.33 760.174 1443.5 761.84 1437.23 746.465Z"/><path fill="#F0F3F6" transform="translate(851.66 779.10)" d="M119.56 4.24L119.56 4.24Q90.63 4.24 71.93-4.63Q53.22-13.50 43.97-31.43Q34.71-49.37 34.71-76.36L34.71-76.36L34.71-139.23L21.60-139.23Q9.26-139.23 2.51-145.79Q-4.24-152.34-4.24-164.69L-4.24-164.69Q-4.24-177.03 2.51-183.39Q9.26-189.75 21.60-189.75L21.60-189.75L34.71-189.75L34.71-213.67Q34.71-230.64 43.58-239.51Q52.45-248.38 69.04-248.38L69.04-248.38Q85.62-248.38 94.49-239.51Q103.36-230.64 103.36-213.67L103.36-213.67L103.36-189.75L134.99-189.75Q147.72-189.75 154.47-183.39Q161.21-177.03 161.21-164.69L161.21-164.69Q161.21-152.34 154.47-145.79Q147.72-139.23 134.99-139.23L134.99-139.23L103.36-139.23L103.36-78.68Q103.36-64.41 110.11-57.66Q116.86-50.91 131.52-50.91L131.52-50.91Q136.92-50.91 141.93-52.07Q146.94-53.22 151.19-53.22L151.19-53.22Q157.36-53.61 161.21-49.56Q165.07-45.51 165.07-31.24L165.07-31.24Q165.07-19.67 161.60-11.76Q158.13-3.86 149.26-0.39L149.26-0.39Q143.86 1.54 134.60 2.89Q125.35 4.24 119.56 4.24ZM284.25 4.24L284.25 4.24Q249.54 4.24 224.27-7.91Q199.01-20.06 185.51-42.42Q172.01-64.79 172.01-95.26L172.01-95.26Q172.01-124.57 184.93-146.75Q197.85-168.93 220.42-181.46Q242.98-194.00 271.90-194.00L271.90-194.00Q293.12-194.00 310.47-187.25Q327.83-180.50 340.17-167.58Q352.51-154.66 358.88-136.53Q365.24-118.40 365.24-96.03L365.24-96.03Q365.24-88.32 361.00-84.66Q356.75-80.99 347.50-80.99L347.50-80.99L229.48-80.99L229.48-113.39L315.10-113.39L308.93-108.38Q308.93-122.65 305.07-131.52Q301.22-140.39 293.70-145.02Q286.17-149.64 274.99-149.64L274.99-149.64Q263.03-149.64 254.36-144.05Q245.68-138.46 241.05-127.66Q236.42-116.86 236.42-100.66L236.42-100.66L236.42-97.19Q236.42-69.81 248.57-58.04Q260.72-46.28 286.17-46.28L286.17-46.28Q294.66-46.28 305.65-48.40Q316.64-50.52 326.67-54.38L326.67-54.38Q336.70-58.24 344.03-55.73Q351.36-53.22 355.40-47.25Q359.45-41.27 359.84-33.75Q360.23-26.23 356.37-19.09Q352.51-11.96 343.64-8.10L343.64-8.10Q330.14-1.93 314.91 1.16Q299.67 4.24 284.25 4.24ZM491.36 4.24L491.36 4.24Q462.43 4.24 443.73-4.63Q425.02-13.50 415.76-31.43Q406.51-49.37 406.51-76.36L406.51-76.36L406.51-139.23L393.39-139.23Q381.05-139.23 374.30-145.79Q367.55-152.34 367.55-164.69L367.55-164.69Q367.55-177.03 374.30-183.39Q381.05-189.75 393.39-189.75L393.39-189.75L406.51-189.75L406.51-213.67Q406.51-230.64 415.38-239.51Q424.25-248.38 440.83-248.38L440.83-248.38Q457.42-248.38 466.29-239.51Q475.16-230.64 475.16-213.67L475.16-213.67L475.16-189.75L506.78-189.75Q519.51-189.75 526.26-183.39Q533.01-177.03 533.01-164.69L533.01-164.69Q533.01-152.34 526.26-145.79Q519.51-139.23 506.78-139.23L506.78-139.23L475.16-139.23L475.16-78.68Q475.16-64.41 481.91-57.66Q488.66-50.91 503.31-50.91L503.31-50.91Q508.71-50.91 513.73-52.07Q518.74-53.22 522.98-53.22L522.98-53.22Q529.15-53.61 533.01-49.56Q536.87-45.51 536.87-31.24L536.87-31.24Q536.87-19.67 533.40-11.76Q529.93-3.86 521.05-0.39L521.05-0.39Q515.65 1.54 506.40 2.89Q497.14 4.24 491.36 4.24ZM630.20 4.24L630.20 4.24Q613.23 4.24 595.68 1.74Q578.14-0.77 563.87-7.33L563.87-7.33Q554.22-11.18 550.17-17.74Q546.12-24.30 546.32-31.63Q546.51-38.95 550.56-44.93Q554.61-50.91 561.36-53.42Q568.11-55.92 576.59-52.84L576.59-52.84Q592.79-47.05 605.71-44.55Q618.63-42.04 630.59-42.04L630.59-42.04Q644.86-42.04 651.03-46.09Q657.20-50.14 657.20-56.70L657.20-56.70Q657.20-62.48 653.15-65.57Q649.10-68.65 641.77-69.81L641.77-69.81L598.96-76.75Q575.05-80.99 561.94-94.30Q548.82-107.60 548.82-129.20L548.82-129.20Q548.82-149.26 560.20-163.72Q571.58-178.18 591.44-186.09Q611.30-194.00 637.14-194.00L637.14-194.00Q654.50-194.00 668.77-191.49Q683.04-188.98 696.54-182.43L696.54-182.43Q705.02-178.96 708.50-172.40Q711.97-165.84 711.19-158.71Q710.42-151.57 706.37-145.59Q702.32-139.62 695.38-137.50Q688.44-135.37 679.18-138.46L679.18-138.46Q666.46-143.47 656.62-145.79Q646.79-148.10 638.30-148.10L638.30-148.10Q622.49-148.10 615.93-143.86Q609.38-139.62 609.38-133.06L609.38-133.06Q609.38-128.05 612.85-124.77Q616.32-121.49 623.65-120.33L623.65-120.33L666.46-113.00Q691.14-109.15 704.45-96.23Q717.75-83.31 717.75-61.32L717.75-61.32Q717.75-30.08 693.84-12.92Q669.93 4.24 630.20 4.24ZM815.33 4.24L815.33 4.24Q790.65 4.24 774.83-4.82Q759.02-13.88 751.11-32.01Q743.21-50.14 743.21-77.91L743.21-77.91L743.21-158.90Q743.21-175.87 752.08-184.55Q760.95-193.23 777.53-193.23L777.53-193.23Q794.12-193.23 802.99-184.55Q811.86-175.87 811.86-158.90L811.86-158.90L811.86-75.98Q811.86-62.09 817.64-55.15Q823.43-48.21 835.77-48.21L835.77-48.21Q849.65-48.21 858.52-58.24Q867.40-68.27 867.40-84.85L867.40-84.85L867.40-158.90Q867.40-175.87 876.27-184.55Q885.14-193.23 901.72-193.23L901.72-193.23Q918.31-193.23 927.18-184.55Q936.05-175.87 936.05-158.90L936.05-158.90L936.05-31.24Q936.05 3.47 902.88 3.47L902.88 3.47Q886.68 3.47 877.81-5.40Q868.94-14.27 868.94-31.24L868.94-31.24L868.94-53.61L875.11-34.71Q866.62-15.81 851.39-5.79Q836.16 4.24 815.33 4.24Z"/></svg>
